<?xml version="1.0" standalone="no"?>
<!DOCTYPE svg PUBLIC "-//W3C//DTD SVG 20010904//EN"
 "http://www.w3.org/TR/2001/REC-SVG-20010904/DTD/svg10.dtd">
<svg version="1.0" xmlns="http://www.w3.org/2000/svg"
 width="700.000000pt" height="700.000000pt" viewBox="0 0 700.000000 700.000000"
 preserveAspectRatio="xMidYMid meet">
<metadata>
Created by potrace 1.11, written by Peter Selinger 2001-2013
</metadata>
<g transform="translate(0.000000,700.000000) scale(0.100000,-0.100000)"
fill="#000000" stroke="none">
<path d="M1432 6343 c-22 -31 -72 -138 -72 -153 0 -6 -4 -10 -9 -10 -5 0 -11
-10 -14 -22 -3 -13 -11 -43 -17 -68 -6 -25 -13 -61 -16 -80 -2 -19 -6 -51 -9
-70 -5 -37 -12 -144 -20 -298 l-5 -92 38 25 c20 14 57 35 82 47 76 36 195 26
330 -28 89 -35 178 -34 228 3 29 21 91 159 99 222 6 41 6 42 -157 191 -57 52
-113 104 -124 115 -82 78 -291 245 -306 245 -5 0 -17 -12 -28 -27z"/>
<path d="M5600 6338 c-40 -27 -176 -135 -206 -163 -6 -5 -55 -50 -109 -100
-198 -181 -218 -202 -210 -222 4 -10 14 -45 21 -78 19 -79 73 -176 108 -193
32 -16 104 -22 126 -10 42 21 201 67 245 71 68 6 142 -15 209 -58 36 -23 57
-31 57 -23 3 23 2 42 -5 128 -4 47 -9 112 -12 145 -5 59 -19 166 -29 215 -3
14 -7 35 -9 47 -10 48 -115 265 -131 269 -6 2 -30 -11 -55 -28z"/>
<path d="M2935 5849 c-27 -3 -45 -7 -40 -7 6 -1 17 -19 24 -39 7 -21 21 -56
31 -78 24 -50 135 -382 150 -450 16 -71 17 -74 35 -140 9 -33 18 -67 20 -75 5
-25 34 -183 40 -217 3 -18 7 -46 10 -61 5 -29 11 -75 20 -147 3 -22 7 -49 9
-61 2 -11 7 -52 11 -90 3 -38 8 -82 10 -99 15 -116 20 -288 20 -690 0 -492 -5
-616 -35 -815 -5 -36 -12 -83 -15 -105 -3 -23 -7 -52 -10 -65 -3 -13 -7 -42
-10 -63 -4 -22 -10 -49 -15 -61 -4 -13 -11 -40 -14 -62 -8 -44 -24 -109 -36
-139 -8 -18 -22 -76 -21 -82 2 -12 -83 -228 -152 -385 -7 -16 -15 -28 -19 -28
-5 0 -8 -7 -8 -15 0 -9 -8 -28 -19 -43 -10 -15 -38 -58 -62 -97 -81 -129 -214
-275 -347 -379 l-73 -58 27 -36 c16 -20 43 -59 61 -86 18 -28 37 -55 41 -61
34 -43 93 -128 115 -165 14 -25 41 -62 60 -83 l33 -38 59 59 c67 67 182 152
277 205 223 124 515 144 768 52 115 -41 295 -160 397 -262 l56 -56 18 24 c16
20 124 176 194 279 11 16 41 59 67 95 26 37 45 72 42 78 -3 7 -32 32 -64 56
-66 49 -210 192 -264 261 -52 67 -155 233 -192 310 -63 133 -148 358 -154 412
0 4 -7 23 -15 43 -9 19 -14 38 -13 42 1 5 -3 24 -10 43 -6 19 -14 49 -16 65
-3 17 -11 57 -19 90 -8 33 -18 80 -21 105 -3 25 -13 92 -21 150 -34 242 -38
337 -38 795 0 360 6 605 17 660 2 11 7 52 10 90 10 103 16 157 21 185 2 14 7
45 10 70 3 25 10 70 15 100 5 30 12 72 16 94 3 21 8 48 10 60 2 11 7 35 10 51
7 38 37 170 59 255 25 99 116 384 126 394 5 6 9 17 9 25 0 9 18 55 39 103 l38
86 -46 4 c-74 7 -1171 4 -1226 -3z"/>
<path d="M1049 4747 c-8 -14 -45 -76 -83 -137 -77 -126 -186 -334 -186 -356 0
-8 -3 -14 -7 -14 -5 0 -16 -21 -27 -48 -10 -26 -27 -65 -37 -87 -10 -22 -43
-113 -73 -203 l-55 -162 107 -123 c129 -146 258 -297 292 -341 59 -76 87 -111
111 -140 74 -90 364 -466 490 -636 238 -320 371 -502 424 -578 28 -40 73 -103
100 -141 28 -38 68 -94 90 -125 22 -31 42 -56 46 -56 8 0 30 85 35 134 6 57 6
420 0 476 -14 119 -49 312 -83 445 -32 132 -39 156 -62 238 -6 17 -19 64 -30
102 -11 39 -27 89 -37 113 -9 23 -14 45 -11 48 3 3 21 1 39 -4 85 -27 163 -14
245 40 55 36 96 124 96 203 -1 143 -103 246 -249 251 -82 3 -146 -26 -204 -95
-24 -28 -49 -51 -55 -51 -11 0 -45 57 -45 74 0 28 -212 422 -281 523 -16 23
-29 44 -29 48 0 3 -4 11 -10 18 -35 42 -89 116 -99 134 -11 22 -148 194 -193
244 -91 100 -160 178 -181 203 l-25 28 -13 -25z"/>
<path d="M5973 4704 c-32 -33 -78 -84 -103 -113 -25 -30 -50 -59 -55 -65 -6
-6 -42 -51 -81 -101 -72 -92 -98 -128 -190 -270 -29 -44 -57 -85 -63 -91 -30
-35 -199 -357 -258 -491 -18 -40 -37 -73 -42 -73 -6 0 -23 14 -38 32 -105 121
-203 148 -327 88 -71 -34 -85 -47 -119 -114 -36 -71 -34 -154 4 -232 32 -66
65 -92 156 -123 57 -19 82 -19 164 3 36 10 40 -2 20 -54 -23 -57 -96 -299
-106 -348 -2 -13 -9 -37 -14 -55 -19 -58 -51 -210 -73 -342 -18 -106 -22 -172
-22 -360 0 -233 4 -299 24 -369 l12 -38 46 65 c26 35 69 95 95 133 152 215
275 385 340 468 12 16 40 54 61 85 60 86 299 402 401 531 50 63 115 147 145
185 30 39 57 72 60 75 3 3 28 34 55 70 46 61 76 97 100 124 6 6 46 54 89 106
43 52 84 100 90 105 6 6 38 42 71 80 33 39 70 81 83 95 27 30 25 43 -26 180
-19 52 -37 107 -39 123 -3 15 -9 27 -13 27 -4 0 -10 10 -13 23 -10 40 -33 97
-45 109 -7 7 -12 18 -12 26 0 17 -96 210 -134 270 -14 23 -26 44 -26 47 0 6
-139 228 -150 239 -6 6 -32 -14 -67 -50z"/>
<path d="M3467 610 c-28 -9 -144 -88 -165 -113 -11 -12 -17 -60 -13 -92 2 -15
209 -22 411 -15 115 4 120 6 119 44 -1 46 -10 61 -59 99 -85 64 -139 87 -205
86 -33 0 -72 -4 -88 -9z"/>
</g>
</svg>
