<?xml version="1.0" encoding="UTF-8"?>
<!-- Created with Inkscape (http://www.inkscape.org/) -->
<svg width="48.794mm" height="49.2mm" version="1.1" viewBox="0 0 48.794 49.2" xmlns="http://www.w3.org/2000/svg" xmlns:cc="http://creativecommons.org/ns#" xmlns:dc="http://purl.org/dc/elements/1.1/" xmlns:rdf="http://www.w3.org/1999/02/22-rdf-syntax-ns#">
 <metadata>
  <rdf:RDF>
   <cc:Work rdf:about="">
    <dc:format>image/svg+xml</dc:format>
    <dc:type rdf:resource="http://purl.org/dc/dcmitype/StillImage"/>
    <dc:title/>
   </cc:Work>
  </rdf:RDF>
 </metadata>
 <g transform="translate(-17.936 -58.465)">
  <g transform="matrix(.26458 0 0 .26458 13.159 53.325)" display="block">
   <g id="svgg" transform="translate(-91.729,-55.639)">
    <path d="m136.46 75.4c-3.8848 5.9911-4.6797 12.414-4.983 18.867-0.084 1.833-0.186 4.013-0.228 4.844l-0.077 1.511 1.084-0.746c1.818-1.251 3.065-1.876 3.743-1.876 0.355 0 0.951-0.139 1.324-0.309 4.3209-0.5155 8.0672 2.4272 11.862 2.442 2.857 0 4.191-1.292 5.37-5.2 0.177-0.586 0.417-1.306 0.533-1.6 0.564-1.42 0.45-2.273-0.396-2.981-5.6594-4.8899-10.594-9.8505-15.889-13.952-0.752-0.897-1.991-1.426-2.343-1m130.34-0.112c0 0.122-0.33 0.392-0.733 0.6-0.404 0.208-0.794 0.444-0.867 0.524-4.01 2.9535-7.5566 6.123-10.933 9.325-1.98 1.879-3.93 3.676-4.334 3.993-0.734 0.576-0.991 1.679-0.466 2.003 0.89742 2.4713 1.2581 5.8184 3.233 7.721 0.809 0.721 4.253 1.028 4.633 0.413 3.4143-0.97973 7.314-2.4514 10.267-2.006 1.006 0.19 3.277 1.212 3.422 1.539 0.39703 0.24605 0.82199 0.4822 1.173 0.733 0.923 0.86 1.082 0.659 0.896-1.133-0.096-0.917-0.288-3.347-0.427-5.4-0.289-4.261-0.615-6.937-1.057-8.667-0.97126-3.5152-2.3624-6.9476-4.462-9.866-0.19 0-0.345 0.099-0.345 0.221m-85.333 16.045c0 0.147 0.12 0.267 0.266 0.267 0.49149 0.65498 0.79557 1.6644 1.036 2.337 2.3074 6.4312 5.0748 13.286 6.164 19.13 0.35914 1.5748 0.79553 3.2171 1.064 4.666 0.278 1.401 0.458 2.367 1.082 5.8 0.73 4.019 1.539 10.758 2.169 18.067 0.404 4.699 0.404 29.129-1e-3 33.6-0.545 6.017-0.872 8.637-1.647 13.2-0.29044 2.5979-1.2118 5.5116-1.51 7.535-0.71303 2.5365-1.5884 5.1745-2.223 7.547-2.6162 6.455-4.582 12.268-8.796 17.718-0.09 0.073-0.455 0.553-0.812 1.067-2.8698 3.8196-6.427 6.8248-10.09 9.758l-0.631 0.58 1.152 1.698c3.0557 4.3615 5.484 8.0399 8.205 11.764 0.81 1.188 1.372 1.6 1.372 1.007 0-1.183 7.106-6.799 10.666-8.43 0.514-0.235 1.395-0.656 1.959-0.936 1.3383-0.56561 2.89-0.96253 4.112-1.276 2.265-1.151 11.727-1.151 13.992 0 2.1795 0.44311 4.0035 1.2373 6.071 2.212 3.56 1.631 10.666 7.247 10.666 8.43 0 0.593 0.562 0.181 1.372-1.007 2.9138-3.8904 5.7822-8.2218 8.205-11.764l1.152-1.698-0.631-0.58c-6.6789-5.9281-14.075-13.539-16.764-21.229-0.96157-2.2221-2.0565-4.6166-2.667-6.663-1.1431-2.5331-1.6613-5.8634-2.49-8.198-0.15047-1.7169-0.77394-3.4192-1.102-5.002-0.088-0.586-0.271-1.726-0.408-2.533-0.775-4.563-1.102-7.183-1.647-13.2-0.405-4.471-0.405-28.901-1e-3 -33.6 0.63-7.309 1.439-14.048 2.169-18.067 0.624-3.433 0.804-4.399 1.082-5.8 0.39176-1.9883 0.7815-3.9781 1.33-5.733 1.4573-5.5925 2.9822-11.414 5.334-16.8 0.62984-1.2996 1.0469-2.8817 1.866-3.867 0-0.175-7.022-0.266-20.533-0.266s-20.533 0.091-20.533 0.266m-57.149 34.226c-1.1312 1.8964-2.3535 3.9348-3.418 5.508-0.092 0.073-0.692 1.153-1.334 2.4-3.5584 6.241-6.5401 13.505-8.331 18.924l-1.449 4.391 0.529 0.676c0.291 0.371 1.342 1.575 2.336 2.675 18.922 19.772 32.94 42.136 46.951 61.067 0.4655 0.66929 0.99903 1.3747 1.45 1.997 0.84344 0.28516 0.63354-0.91525 0.954-1.864 0.65-0.852 0.873-14 0.303-17.866-0.34773-8.6409-4.545-17.704-5.909-25.33-0.24684-1.0412-0.83135-1.9589-1.067-3.066 0-0.334 0.98-0.361 1.183-0.033 0.128 0.208 1.609 0.518 2.817 0.59 3.467-0.58934 5.9557-2.6755 7.432-5.095 0.209 0 0.601-1.915 0.601-2.933 0.12128-1.5992-0.69557-2.8571-1.099-4-1.3929-2.0564-4.5156-4.0716-6.934-4.028-2.7124 0.22271-5.1841 1.4274-6.663 3.744-0.653 1.069-1.603 1.474-1.603 0.684-0.84137-1.0092-1.1799-2.6542-1.877-3.93-6.3268-12.005-12.903-22.39-21.235-31.56-1.198-1.318-2.404-2.677-2.681-3.019l-0.504-0.622-0.452 0.69m149.78 4.708c-0.567 0.66-1.098 1.26-1.179 1.333-8.3104 9.4908-14.492 21.324-19.219 30.73-0.10661 0.61431-0.51132 1.2391-0.767 1.67 0 0.79-0.95 0.385-1.603-0.684-1.9869-2.3289-3.8109-3.5549-6.663-3.744-2.272-0.135-6.667 2.279-6.667 3.662-0.2807 0.47081-0.53889 0.86186-0.765 1.433-0.209 0-0.601 1.915-0.601 2.933 0.14714 1.173 0.26925 2.6398 0.833 3.467 1.4658 2.2359 4.7632 4.5286 7.2 4.561 1.208-0.072 2.689-0.382 2.817-0.59 0.203-0.328 1.183-0.301 1.183 0.033-3.0635 9.1833-5.6496 19.579-6.976 28.396-0.57 3.866-0.347 17.014 0.303 17.866 0.112 0.147 0.29 0.745 0.395 1.33 0.18 0.998 0.215 1.031 0.559 0.534 0.202-0.292 0.464-0.65 0.583-0.797s0.51-0.687 0.867-1.2c15.961-19.568 29.619-40.937 44.373-58.134 1.6739-1.9616 3.2134-3.6059 4.911-5.604l0.526-0.671-1.252-3.788c-2.8158-8.5487-6.864-17.236-11.756-24.603-0.68557-1.0663-1.2245-2.0415-1.943-3.006m-78.59 128.26c-1.648 0.175-3.213 1.097-6.463 3.807-0.337 0.282-0.471 0.779-0.471 1.759v1.366l3.667 0.218c2.017 0.119 4.087 0.217 4.6 0.217s2.583-0.098 4.6-0.217l3.667-0.218v-1.366c0-0.98-0.134-1.477-0.471-1.759-4.129-3.443-5.841-4.157-9.129-3.807" fill="#f90" fill-rule="evenodd"/>
   </g>
  </g>
 </g>
</svg>
