<?xml version="1.0" encoding="UTF-8"?>
<svg id="svg" width="217.29" height="217.29" display="block" version="1.1" viewBox="0 0 217.29 217.29" xmlns="http://www.w3.org/2000/svg" xmlns:cc="http://creativecommons.org/ns#" xmlns:dc="http://purl.org/dc/elements/1.1/" xmlns:rdf="http://www.w3.org/1999/02/22-rdf-syntax-ns#">
 <metadata>
  <rdf:RDF>
   <cc:Work rdf:about="">
    <dc:format>image/svg+xml</dc:format>
    <dc:type rdf:resource="http://purl.org/dc/dcmitype/StillImage"/>
    <dc:title/>
   </cc:Work>
  </rdf:RDF>
 </metadata>
 <g id="svgg" transform="translate(-91.729 -55.639)">
  <path d="m136.46 75.4c-0.533 0.646-2.45 4.606-2.454 5.067-1e-3 0.256-0.123 0.466-0.27 0.466-0.146 0-0.266 0.233-0.266 0.518s-0.106 0.583-0.236 0.663c-0.13 0.081-0.305 0.478-0.388 0.883-0.084 0.405-0.288 1.336-0.453 2.07-0.397 1.758-0.73 5.095-0.916 9.2-0.084 1.833-0.186 4.013-0.228 4.844l-0.077 1.511 1.084-0.746c1.818-1.251 3.065-1.876 3.743-1.876 0.355 0 0.951-0.139 1.324-0.309 0.779-0.355 4.893 0.381 6.343 1.135 0.255 0.132 0.698 0.241 0.984 0.241 0.287 0 0.596 0.12 0.686 0.266 0.091 0.147 0.451 0.267 0.8 0.267 0.35 0 0.71 0.12 0.8 0.267 0.091 0.146 1.103 0.266 2.249 0.266 2.857 0 4.191-1.292 5.37-5.2 0.177-0.586 0.417-1.306 0.533-1.6 0.564-1.42 0.45-2.273-0.396-2.981-0.452-0.379-2.442-2.216-4.422-4.084s-4.14-3.862-4.8-4.432-1.26-1.098-1.334-1.173c-0.073-0.075-0.793-0.674-1.6-1.33-0.806-0.656-1.526-1.26-1.6-1.342-0.073-0.083-0.553-0.438-1.066-0.791-0.514-0.353-0.994-0.713-1.067-0.8-0.752-0.897-1.991-1.426-2.343-1m130.34-0.112c0 0.122-0.33 0.392-0.733 0.6-0.404 0.208-0.794 0.444-0.867 0.524-0.073 0.081-0.553 0.435-1.067 0.788-0.779 0.535-3.814 3.004-4.266 3.471-0.074 0.076-0.554 0.478-1.067 0.893-0.513 0.416-2.553 2.293-4.533 4.173-1.98 1.879-3.93 3.676-4.334 3.993-0.734 0.576-0.991 1.679-0.466 2.003 0.146 0.091 0.266 0.48 0.266 0.864 0 1.74 1.742 5.766 2.967 6.857 0.809 0.721 4.253 1.028 4.633 0.413 0.091-0.147 0.451-0.267 0.8-0.267 0.35 0 0.71-0.12 0.8-0.267 0.091-0.146 0.451-0.266 0.8-0.266 0.35 0 0.71-0.12 0.8-0.267 0.091-0.147 0.434-0.267 0.763-0.267 0.328 0 0.711-0.107 0.851-0.239 0.524-0.496 3.766-0.753 5.453-0.433 1.006 0.19 3.277 1.212 3.422 1.539 0.049 0.11 0.204 0.2 0.345 0.2 0.14 0 0.513 0.24 0.828 0.533 0.923 0.86 1.082 0.659 0.896-1.133-0.096-0.917-0.288-3.347-0.427-5.4-0.289-4.261-0.615-6.937-1.057-8.667-0.169-0.66-0.373-1.531-0.454-1.936s-0.254-0.802-0.384-0.883c-0.13-0.08-0.236-0.378-0.236-0.663s-0.12-0.518-0.266-0.518c-0.147 0-0.267-0.198-0.267-0.439 0-0.716-2.478-5.427-2.855-5.427-0.19 0-0.345 0.099-0.345 0.221m-85.333 16.045c0 0.147 0.12 0.267 0.266 0.267 0.147 0 0.267 0.24 0.267 0.533 0 0.294 0.12 0.534 0.267 0.534 0.146 0 0.266 0.181 0.266 0.403s0.106 0.612 0.236 0.867c0.129 0.255 0.383 0.823 0.564 1.263s0.435 1.008 0.565 1.263c0.129 0.255 0.235 0.705 0.235 1s0.12 0.537 0.267 0.537 0.267 0.276 0.267 0.613c0 0.338 0.098 0.728 0.218 0.867 0.121 0.139 0.493 1.153 0.828 2.253s0.716 2.209 0.848 2.463c0.131 0.255 0.239 0.765 0.239 1.134 0 0.368 0.12 0.67 0.267 0.67 0.146 0 0.266 0.353 0.266 0.784 0 0.432 0.12 0.859 0.267 0.949 0.147 0.091 0.267 0.571 0.267 1.067s0.12 0.976 0.266 1.067c0.147 0.09 0.267 0.57 0.267 1.066s0.12 0.976 0.267 1.067c0.146 0.091 0.266 0.571 0.266 1.067s0.108 0.968 0.239 1.049 0.305 0.598 0.386 1.149c0.082 0.551 0.279 1.662 0.439 2.468 0.278 1.401 0.458 2.367 1.082 5.8 0.73 4.019 1.539 10.758 2.169 18.067 0.404 4.699 0.404 29.129-1e-3 33.6-0.545 6.017-0.872 8.637-1.647 13.2-0.137 0.807-0.32 1.947-0.408 2.533-0.087 0.587-0.263 1.307-0.39 1.6-0.231 0.532-0.434 1.499-0.712 3.402-0.08 0.551-0.254 1.068-0.385 1.149s-0.238 0.493-0.238 0.916-0.12 0.843-0.267 0.933c-0.147 0.091-0.267 0.511-0.267 0.934 0 0.422-0.12 0.842-0.266 0.933-0.147 0.091-0.267 0.511-0.267 0.933 0 0.423-0.12 0.843-0.267 0.934-0.146 0.09-0.266 0.457-0.266 0.815s-0.12 0.651-0.267 0.651-0.267 0.293-0.267 0.651-0.096 0.711-0.214 0.783c-0.117 0.073-0.379 0.74-0.581 1.483-0.202 0.742-0.466 1.35-0.586 1.35s-0.219 0.182-0.219 0.404-0.12 0.642-0.266 0.933c-0.147 0.291-0.387 0.768-0.534 1.059-0.146 0.292-0.266 0.712-0.266 0.934s-0.12 0.403-0.267 0.403-0.267 0.24-0.267 0.534c0 0.293-0.12 0.533-0.266 0.533-0.147 0-0.267 0.24-0.267 0.533 0 0.294-0.12 0.534-0.267 0.534-0.146 0-0.266 0.23-0.266 0.511s-0.09 0.551-0.2 0.6c-0.251 0.111-1.117 1.531-1.315 2.155-0.081 0.257-0.254 0.467-0.383 0.467-0.13 0-0.236 0.128-0.236 0.285 0 0.268-1.505 2.625-1.862 2.915-0.09 0.073-0.455 0.553-0.812 1.067-1.602 2.303-6.128 6.894-8.19 8.307-0.698 0.479-1.553 1.131-1.9 1.451l-0.631 0.58 1.152 1.698c0.633 0.933 1.367 1.93 1.63 2.214 0.264 0.284 0.48 0.664 0.48 0.844 0 0.181 0.098 0.368 0.218 0.417 0.121 0.049 0.742 0.869 1.382 1.822s1.261 1.773 1.382 1.822c0.12 0.049 0.218 0.229 0.219 0.4 0 0.171 0.36 0.731 0.799 1.245 0.439 0.513 0.799 1.073 0.799 1.244 1e-3 0.171 0.098 0.351 0.217 0.4 0.118 0.049 0.604 0.659 1.079 1.356 0.81 1.188 1.372 1.6 1.372 1.007 0-1.183 7.106-6.799 10.666-8.43 0.514-0.235 1.395-0.656 1.959-0.936 0.564-0.279 1.247-0.508 1.517-0.508 0.271 0 0.567-0.12 0.658-0.267 0.09-0.146 0.459-0.266 0.819-0.266s0.863-0.106 1.118-0.235c2.265-1.151 11.727-1.151 13.992 0 0.255 0.129 0.758 0.235 1.118 0.235s0.729 0.12 0.819 0.266c0.091 0.147 0.387 0.267 0.658 0.267 0.27 0 0.953 0.229 1.517 0.508 0.564 0.28 1.445 0.701 1.959 0.936 3.56 1.631 10.666 7.247 10.666 8.43 0 0.593 0.562 0.181 1.372-1.007 0.475-0.697 0.961-1.307 1.079-1.356 0.119-0.049 0.216-0.229 0.217-0.4 0-0.171 0.36-0.731 0.799-1.244 0.439-0.514 0.799-1.074 0.799-1.245 1e-3 -0.171 0.099-0.351 0.219-0.4 0.121-0.049 0.742-0.869 1.382-1.822s1.261-1.773 1.382-1.822c0.12-0.049 0.218-0.236 0.218-0.417 0-0.18 0.216-0.56 0.48-0.844 0.263-0.284 0.997-1.281 1.63-2.214l1.152-1.698-0.631-0.58c-0.347-0.32-1.202-0.972-1.9-1.451-2.062-1.413-6.588-6.004-8.19-8.307-0.357-0.514-0.722-0.994-0.812-1.067-0.341-0.277-1.862-2.641-1.862-2.892 0-0.145-0.09-0.304-0.2-0.352-0.251-0.112-1.117-1.532-1.315-2.156-0.081-0.257-0.254-0.467-0.383-0.467-0.13 0-0.236-0.24-0.236-0.533s-0.12-0.533-0.266-0.533c-0.147 0-0.267-0.24-0.267-0.534 0-0.293-0.12-0.533-0.267-0.533-0.146 0-0.266-0.24-0.266-0.533 0-0.294-0.12-0.534-0.267-0.534s-0.267-0.181-0.267-0.403-0.12-0.642-0.266-0.934c-0.147-0.291-0.387-0.768-0.534-1.059-0.146-0.291-0.266-0.711-0.266-0.933s-0.099-0.404-0.219-0.404-0.384-0.608-0.586-1.35c-0.202-0.743-0.464-1.41-0.581-1.483-0.118-0.072-0.214-0.425-0.214-0.783s-0.12-0.651-0.267-0.651-0.267-0.293-0.267-0.651-0.12-0.725-0.266-0.815c-0.147-0.091-0.267-0.511-0.267-0.934 0-0.422-0.12-0.842-0.267-0.933-0.146-0.091-0.266-0.511-0.266-0.933 0-0.423-0.12-0.843-0.267-0.934-0.147-0.09-0.267-0.51-0.267-0.933s-0.107-0.835-0.238-0.916-0.305-0.598-0.385-1.149c-0.278-1.903-0.481-2.87-0.712-3.402-0.127-0.293-0.303-1.013-0.39-1.6-0.088-0.586-0.271-1.726-0.408-2.533-0.775-4.563-1.102-7.183-1.647-13.2-0.405-4.471-0.405-28.901-1e-3 -33.6 0.63-7.309 1.439-14.048 2.169-18.067 0.624-3.433 0.804-4.399 1.082-5.8 0.16-0.806 0.357-1.917 0.439-2.468 0.081-0.551 0.255-1.068 0.386-1.149s0.239-0.553 0.239-1.049 0.12-0.976 0.266-1.067c0.147-0.091 0.267-0.571 0.267-1.067s0.12-0.976 0.267-1.066c0.146-0.091 0.266-0.571 0.266-1.067s0.12-0.976 0.267-1.067c0.147-0.09 0.267-0.517 0.267-0.949 0-0.431 0.12-0.784 0.266-0.784 0.147 0 0.267-0.302 0.267-0.67 0-0.369 0.108-0.879 0.239-1.134 0.132-0.254 0.513-1.363 0.848-2.463s0.707-2.114 0.828-2.253c0.12-0.139 0.218-0.529 0.218-0.867 0-0.337 0.12-0.613 0.267-0.613s0.267-0.242 0.267-0.537 0.106-0.745 0.235-1c0.13-0.255 0.384-0.823 0.565-1.263s0.435-1.008 0.564-1.263c0.13-0.255 0.236-0.645 0.236-0.867s0.12-0.403 0.266-0.403c0.147 0 0.267-0.24 0.267-0.534 0-0.293 0.12-0.533 0.267-0.533 0.146 0 0.266-0.12 0.266-0.267 0-0.175-7.022-0.266-20.533-0.266s-20.533 0.091-20.533 0.266m-57.149 34.226c-0.248 0.379-0.451 0.813-0.451 0.965s-0.106 0.276-0.235 0.276-0.383 0.36-0.565 0.8c-0.183 0.44-0.423 0.8-0.535 0.8s-0.27 0.21-0.351 0.467c-0.165 0.521-1.023 1.993-1.281 2.2-0.092 0.073-0.692 1.153-1.334 2.4-0.641 1.246-1.256 2.306-1.366 2.355s-0.2 0.319-0.2 0.6-0.12 0.511-0.267 0.511c-0.146 0-0.266 0.23-0.266 0.511 0 0.282-0.09 0.552-0.2 0.6-0.288 0.128-1.4 2.337-1.4 2.781 0 0.206-0.12 0.375-0.267 0.375s-0.267 0.182-0.267 0.404-0.12 0.642-0.266 0.933c-0.147 0.291-0.387 0.768-0.534 1.059-0.146 0.292-0.266 0.712-0.266 0.934s-0.12 0.403-0.267 0.403-0.267 0.182-0.267 0.404-0.106 0.612-0.235 0.867c-0.529 1.04-0.878 1.992-2.263 6.187l-1.449 4.391 0.529 0.676c0.291 0.371 1.342 1.575 2.336 2.675s2.154 2.42 2.578 2.933 1.033 1.201 1.353 1.527c0.32 0.327 0.918 1.048 1.33 1.601s0.932 1.186 1.157 1.406c0.224 0.22 0.945 1.06 1.601 1.867 0.657 0.806 1.347 1.627 1.533 1.823s0.666 0.796 1.066 1.333 0.789 1.037 0.864 1.11c0.075 0.074 0.464 0.573 0.864 1.111 0.401 0.537 0.884 1.137 1.074 1.333 0.191 0.196 0.639 0.776 0.996 1.29 0.357 0.513 0.805 1.093 0.995 1.289s0.674 0.796 1.074 1.334c0.4 0.537 0.789 1.037 0.864 1.11s0.464 0.573 0.864 1.11c0.4 0.538 0.884 1.138 1.074 1.334s0.638 0.776 0.995 1.289c0.357 0.514 0.805 1.094 0.996 1.29 0.19 0.196 0.673 0.796 1.074 1.333 0.4 0.538 0.794 1.037 0.875 1.111 0.081 0.073 0.436 0.553 0.789 1.066 0.352 0.514 0.712 0.994 0.8 1.067 0.087 0.073 0.447 0.553 0.8 1.067 0.352 0.513 0.712 0.993 0.8 1.066 0.087 0.074 0.447 0.554 0.8 1.067 0.352 0.513 0.712 0.993 0.8 1.067 0.087 0.073 0.447 0.553 0.8 1.066 0.352 0.514 0.712 0.994 0.8 1.067 0.087 0.073 0.449 0.553 0.804 1.067 0.355 0.513 0.799 1.092 0.987 1.285 0.188 0.194 0.342 0.456 0.342 0.581 0 0.126 0.154 0.387 0.342 0.581s0.632 0.773 0.987 1.286 0.717 0.993 0.804 1.067c0.088 0.073 0.448 0.553 0.8 1.066 0.353 0.514 0.713 0.994 0.8 1.067 0.088 0.073 0.448 0.553 0.8 1.067 0.353 0.513 0.716 0.993 0.808 1.066 0.091 0.074 0.688 0.914 1.326 1.867s1.238 1.793 1.333 1.867c0.095 0.073 0.699 0.913 1.34 1.866 0.642 0.954 1.383 1.966 1.647 2.251 0.264 0.284 0.48 0.674 0.48 0.866 0 0.193 0.091 0.35 0.203 0.35s0.501 0.48 0.863 1.067c0.363 0.586 0.743 1.066 0.845 1.066s0.262 0.24 0.355 0.532c0.093 0.293 0.315 0.683 0.493 0.867 0.179 0.184 0.618 0.755 0.976 1.268 0.357 0.513 0.748 1.053 0.867 1.2s0.381 0.505 0.583 0.797c0.344 0.497 0.379 0.464 0.559-0.534 0.105-0.585 0.283-1.183 0.395-1.33 0.65-0.852 0.873-14 0.303-17.866-0.508-3.452-0.8-5.241-1.108-6.8-0.159-0.807-0.352-1.887-0.429-2.4-0.076-0.514-0.243-1.174-0.37-1.467-0.128-0.293-0.306-0.953-0.396-1.467-0.091-0.513-0.232-1.324-0.315-1.802-0.082-0.478-0.257-0.935-0.387-1.016-0.131-0.081-0.237-0.552-0.237-1.048s-0.12-0.976-0.267-1.067-0.267-0.511-0.267-0.933c0-0.423-0.12-0.843-0.266-0.934-0.147-0.09-0.267-0.459-0.267-0.819s-0.108-0.863-0.241-1.118c-0.132-0.254-0.384-1.003-0.559-1.663s-0.427-1.408-0.559-1.663c-0.133-0.254-0.241-0.764-0.241-1.133s-0.091-0.67-0.202-0.67c-0.196 0-0.865-1.853-0.865-2.396 0-0.334 0.98-0.361 1.183-0.033 0.128 0.208 1.609 0.518 2.817 0.59 2.272 0.135 6.667-2.279 6.667-3.662 0-0.201 0.12-0.366 0.267-0.366 0.146 0 0.266-0.24 0.266-0.533 0-0.294 0.105-0.534 0.232-0.534 0.209 0 0.601-1.915 0.601-2.933s-0.392-2.933-0.601-2.933c-0.127 0-0.232-0.24-0.232-0.534 0-0.293-0.12-0.533-0.266-0.533-0.147 0-0.267-0.165-0.267-0.366 0-1.383-4.395-3.797-6.667-3.662-1.208 0.072-2.689 0.382-2.817 0.59-0.081 0.131-0.33 0.238-0.554 0.238-0.625 0-2.552 1.707-3.292 2.916-0.653 1.069-1.603 1.474-1.603 0.684 0-0.22-0.12-0.4-0.267-0.4s-0.267-0.157-0.267-0.35c0-0.327-0.764-2.136-1.343-3.18-0.141-0.254-0.257-0.644-0.257-0.866s-0.12-0.404-0.266-0.404c-0.147 0-0.267-0.24-0.267-0.533 0-0.294-0.12-0.534-0.267-0.534-0.146 0-0.266-0.24-0.266-0.533s-0.12-0.533-0.267-0.533-0.267-0.23-0.267-0.511c0-0.282-0.094-0.552-0.209-0.6-0.116-0.049-0.536-0.749-0.935-1.556-0.759-1.537-1.563-2.974-1.789-3.2-0.073-0.073-0.423-0.673-0.778-1.333-0.354-0.66-0.984-1.702-1.4-2.315-0.415-0.613-0.755-1.188-0.755-1.278s-0.24-0.421-0.534-0.735c-0.293-0.315-0.533-0.73-0.533-0.923 0-0.192-0.105-0.349-0.234-0.349s-0.384-0.36-0.566-0.8-0.408-0.8-0.503-0.8c-0.094 0-0.468-0.48-0.83-1.067-0.363-0.587-0.751-1.067-0.863-1.067s-0.204-0.157-0.204-0.349c0-0.193-0.213-0.583-0.474-0.867s-0.767-0.937-1.124-1.45c-0.358-0.514-0.807-1.094-0.997-1.29-0.191-0.196-0.674-0.796-1.074-1.333-0.4-0.538-0.789-1.037-0.863-1.111-0.074-0.073-0.675-0.739-1.335-1.48-0.66-0.74-2.18-2.425-3.378-3.743s-2.404-2.677-2.681-3.019l-0.504-0.622-0.452 0.69m152.71 1.435c-1.045 1.14-2.365 2.613-2.932 3.273s-1.098 1.26-1.179 1.333-0.958 1.153-1.949 2.4c-0.99 1.247-1.946 2.447-2.123 2.667s-0.616 0.82-0.975 1.333c-0.36 0.513-0.808 1.092-0.997 1.286-0.188 0.194-0.342 0.455-0.342 0.581 0 0.125-0.157 0.387-0.349 0.581-0.443 0.447-3.117 4.408-3.117 4.618 0 0.086-0.24 0.414-0.534 0.729-0.293 0.315-0.533 0.73-0.533 0.922s-0.106 0.35-0.236 0.35c-0.129 0-0.302 0.21-0.383 0.466-0.145 0.457-0.984 1.937-1.248 2.2-0.16 0.16-1.331 2.29-1.722 3.132-0.153 0.328-0.368 0.598-0.478 0.6-0.11 1e-3 -0.2 0.242-0.2 0.535s-0.12 0.533-0.266 0.533c-0.147 0-0.267 0.24-0.267 0.534 0 0.293-0.12 0.533-0.267 0.533-0.146 0-0.266 0.24-0.266 0.533 0 0.294-0.12 0.534-0.267 0.534s-0.267 0.24-0.267 0.533-0.12 0.533-0.266 0.533c-0.147 0-0.267 0.24-0.267 0.534 0 0.293-0.12 0.533-0.267 0.533-0.146 0-0.266 0.169-0.266 0.375 0 0.323-0.368 1.172-1.367 3.155-0.128 0.254-0.233 0.644-0.233 0.866s-0.12 0.404-0.267 0.404-0.267 0.18-0.267 0.4c0 0.79-0.95 0.385-1.603-0.684-0.74-1.209-2.667-2.916-3.292-2.916-0.224 0-0.473-0.107-0.554-0.238-0.128-0.208-1.609-0.518-2.817-0.59-2.272-0.135-6.667 2.279-6.667 3.662 0 0.201-0.12 0.366-0.267 0.366-0.146 0-0.266 0.24-0.266 0.533 0 0.294-0.105 0.534-0.232 0.534-0.209 0-0.601 1.915-0.601 2.933s0.392 2.933 0.601 2.933c0.127 0 0.232 0.24 0.232 0.534 0 0.293 0.12 0.533 0.266 0.533 0.147 0 0.267 0.165 0.267 0.366 0 1.383 4.395 3.797 6.667 3.662 1.208-0.072 2.689-0.382 2.817-0.59 0.203-0.328 1.183-0.301 1.183 0.033 0 0.543-0.669 2.396-0.865 2.396-0.111 0-0.202 0.301-0.202 0.67s-0.108 0.879-0.241 1.133c-0.132 0.255-0.384 1.003-0.559 1.663s-0.427 1.409-0.559 1.663c-0.133 0.255-0.241 0.758-0.241 1.118s-0.12 0.729-0.267 0.819c-0.146 0.091-0.266 0.511-0.266 0.934 0 0.422-0.12 0.842-0.267 0.933s-0.267 0.571-0.267 1.067-0.106 0.967-0.237 1.048c-0.13 0.081-0.305 0.538-0.387 1.016-0.083 0.478-0.224 1.289-0.315 1.802-0.09 0.514-0.268 1.174-0.396 1.467-0.127 0.293-0.294 0.953-0.37 1.467-0.077 0.513-0.27 1.593-0.429 2.4-0.308 1.559-0.6 3.348-1.108 6.8-0.57 3.866-0.347 17.014 0.303 17.866 0.112 0.147 0.29 0.745 0.395 1.33 0.18 0.998 0.215 1.031 0.559 0.534 0.202-0.292 0.464-0.65 0.583-0.797s0.51-0.687 0.867-1.2c0.358-0.513 0.797-1.084 0.976-1.268 0.178-0.184 0.4-0.574 0.493-0.867 0.093-0.292 0.253-0.532 0.355-0.532s0.482-0.48 0.845-1.066c0.362-0.587 0.751-1.067 0.863-1.067s0.203-0.157 0.203-0.35c0-0.192 0.216-0.582 0.48-0.866 0.264-0.285 1.005-1.297 1.647-2.251 0.641-0.953 1.245-1.793 1.34-1.866 0.095-0.074 0.695-0.914 1.333-1.867s1.235-1.793 1.326-1.867c0.092-0.073 0.455-0.553 0.808-1.066 0.352-0.514 0.712-0.994 0.8-1.067 0.087-0.073 0.447-0.553 0.8-1.067 0.352-0.513 0.712-0.993 0.8-1.066 0.087-0.074 0.449-0.554 0.804-1.067s0.799-1.092 0.987-1.286 0.342-0.455 0.342-0.581c0-0.125 0.154-0.387 0.342-0.581 0.188-0.193 0.632-0.772 0.987-1.285 0.355-0.514 0.717-0.994 0.804-1.067 0.088-0.073 0.448-0.553 0.8-1.067 0.353-0.513 0.713-0.993 0.8-1.066 0.088-0.074 0.448-0.554 0.8-1.067 0.353-0.513 0.713-0.993 0.8-1.067 0.088-0.073 0.448-0.553 0.8-1.066 0.353-0.514 0.713-0.994 0.8-1.067 0.088-0.073 0.448-0.553 0.8-1.067 0.353-0.513 0.708-0.993 0.789-1.066 0.081-0.074 0.475-0.573 0.875-1.111 0.401-0.537 0.884-1.137 1.074-1.333 0.191-0.196 0.639-0.776 0.996-1.29 0.357-0.513 0.805-1.093 0.995-1.289s0.674-0.796 1.074-1.334c0.4-0.537 0.789-1.037 0.864-1.11s0.464-0.573 0.864-1.11c0.4-0.538 0.884-1.138 1.074-1.334s0.638-0.776 0.995-1.289c0.357-0.514 0.805-1.094 0.996-1.29 0.19-0.196 0.673-0.796 1.074-1.333 0.4-0.538 0.789-1.037 0.864-1.111 0.075-0.073 0.464-0.573 0.864-1.11s0.88-1.137 1.066-1.333 0.876-1.017 1.533-1.823c0.656-0.807 1.377-1.647 1.601-1.867 0.225-0.22 0.745-0.853 1.157-1.406s1.01-1.274 1.33-1.601c0.32-0.326 0.929-1.014 1.353-1.527s1.584-1.833 2.578-2.933 2.044-2.302 2.333-2.671l0.526-0.671-1.252-3.788c-0.688-2.083-1.335-3.871-1.437-3.973s-0.186-0.466-0.186-0.808-0.12-0.622-0.266-0.622c-0.147 0-0.267-0.182-0.267-0.404s-0.12-0.642-0.267-0.933c-0.146-0.291-0.386-0.768-0.533-1.059-0.147-0.292-0.267-0.712-0.267-0.934s-0.12-0.403-0.266-0.403c-0.147 0-0.267-0.158-0.267-0.35 0-0.327-0.764-2.136-1.343-3.18-0.141-0.255-0.257-0.635-0.257-0.844 0-0.21-0.09-0.422-0.2-0.471-0.178-0.079-1.566-2.566-2.317-4.153-0.156-0.329-0.373-0.599-0.483-0.6s-0.2-0.242-0.2-0.536c0-0.293-0.12-0.533-0.267-0.533-0.146 0-0.266-0.24-0.266-0.533 0-0.294-0.12-0.534-0.267-0.534s-0.267-0.157-0.267-0.349c0-0.193-0.24-0.608-0.533-0.923-0.293-0.314-0.533-0.644-0.533-0.731 0-0.088-0.48-0.866-1.067-1.73s-1.067-1.642-1.067-1.73-0.124-0.304-0.275-0.481c-0.152-0.177-0.423-0.535-0.601-0.795-0.293-0.426-0.514-0.268-2.227 1.6m-76.363 126.66c-1.648 0.175-3.213 1.097-6.463 3.807-0.337 0.282-0.471 0.779-0.471 1.759v1.366l3.667 0.218c2.017 0.119 4.087 0.217 4.6 0.217s2.583-0.098 4.6-0.217l3.667-0.218v-1.366c0-0.98-0.134-1.477-0.471-1.759-4.129-3.443-5.841-4.157-9.129-3.807" fill="#ff9900" fill-rule="evenodd"/>
 </g>
</svg>
